<?xml version="1.0" encoding="UTF-8" standalone="no"?>
<!-- Created with Inkscape (http://www.inkscape.org/) -->

<svg
   width="50.000004mm"
   height="50mm"
   viewBox="0 0 50.000004 50"
   version="1.1"
   id="svg5"
   inkscape:version="1.2.2 (732a01da63, 2022-12-09)"
   sodipodi:docname="cards.svg"
   xml:space="preserve"
   xmlns:inkscape="http://www.inkscape.org/namespaces/inkscape"
   xmlns:sodipodi="http://sodipodi.sourceforge.net/DTD/sodipodi-0.dtd"
   xmlns="http://www.w3.org/2000/svg"
   xmlns:svg="http://www.w3.org/2000/svg"><sodipodi:namedview
     id="namedview7"
     pagecolor="#505050"
     bordercolor="#eeeeee"
     borderopacity="1"
     inkscape:showpageshadow="0"
     inkscape:pageopacity="0"
     inkscape:pagecheckerboard="0"
     inkscape:deskcolor="#505050"
     inkscape:document-units="mm"
     showgrid="false"
     showborder="false"
     inkscape:zoom="0.0625"
     inkscape:cx="26192"
     inkscape:cy="-3232"
     inkscape:window-width="1920"
     inkscape:window-height="1017"
     inkscape:window-x="1912"
     inkscape:window-y="-8"
     inkscape:window-maximized="1"
     inkscape:current-layer="layer1" /><defs
     id="defs2" /><g
     inkscape:label="Réteg 1"
     inkscape:groupmode="layer"
     id="layer1"
     transform="translate(-7971.8821,899.00049)"><path
       style="fill:#144f5d;stroke-width:0.112934"
       d="m 7975.1122,-898.88677 c -0.3755,0.0791 -0.919,0.26112 -1.2078,0.40441 -0.7067,0.3506 -1.4767,1.24278 -1.7765,2.05812 -0.2374,0.64581 -0.2458,1.41435 -0.2458,22.4756 v 21.80691 l 0.2931,0.69876 c 0.3274,0.78065 1.0617,1.58754 1.7759,1.95138 1.5995,0.81488 4.0567,0.60703 6.6117,-0.55919 1.429,-0.65229 38.2505,-19.59874 38.8212,-19.9754 0.7627,-0.50334 1.7856,-1.60322 2.1354,-2.29593 0.3544,-0.70188 0.4722,-1.95937 0.2496,-2.66444 -0.3835,-1.21467 -1.3922,-2.37624 -2.7767,-3.19763 -0.7691,-0.45626 -36.3513,-18.74802 -38.1694,-19.62179 -2.1307,-1.02401 -4.1588,-1.40784 -5.7107,-1.0808 z"
       id="path75928-9" /></g></svg>
