<?xml version="1.0" encoding="UTF-8" standalone="no"?>
<!-- Created with Inkscape (http://www.inkscape.org/) -->

<svg
   width="50.000038mm"
   height="49.999996mm"
   viewBox="0 0 50.000038 49.999996"
   version="1.1"
   id="svg5"
   inkscape:version="1.2.2 (732a01da63, 2022-12-09)"
   sodipodi:docname="cards.svg"
   xml:space="preserve"
   xmlns:inkscape="http://www.inkscape.org/namespaces/inkscape"
   xmlns:sodipodi="http://sodipodi.sourceforge.net/DTD/sodipodi-0.dtd"
   xmlns="http://www.w3.org/2000/svg"
   xmlns:svg="http://www.w3.org/2000/svg"><sodipodi:namedview
     id="namedview7"
     pagecolor="#505050"
     bordercolor="#eeeeee"
     borderopacity="1"
     inkscape:showpageshadow="0"
     inkscape:pageopacity="0"
     inkscape:pagecheckerboard="0"
     inkscape:deskcolor="#505050"
     inkscape:document-units="mm"
     showgrid="false"
     showborder="false"
     inkscape:zoom="0.0625"
     inkscape:cx="26192"
     inkscape:cy="-3232"
     inkscape:window-width="1920"
     inkscape:window-height="1017"
     inkscape:window-x="1912"
     inkscape:window-y="-8"
     inkscape:window-maximized="1"
     inkscape:current-layer="layer1" /><defs
     id="defs2" /><g
     inkscape:label="Réteg 1"
     inkscape:groupmode="layer"
     id="layer1"
     transform="translate(-7853.2257,899.43439)"><path
       style="fill:#000000;stroke-width:0.397445"
       d="m 7863.7033,-858.51883 c 0.4183,-2.44303 0.7996,-4.44736 0.8473,-4.45399 0.048,-0.006 0.826,0.72441 1.73,1.62468 1.0949,1.09046 2.3443,1.96597 3.7427,2.62293 1.1545,0.54229 2.1074,1.02456 2.1175,1.0716 0.01,0.0473 -1.7427,1.09024 -3.8948,2.31833 -5.2604,3.00176 -5.5653,2.78804 -4.5427,-3.18355 z m -10.4546,-11.90314 c 0.1706,-0.68357 5.3116,-4.65608 6.5973,-5.09794 0.5309,-0.18238 0.6657,0.20823 0.6866,1.98927 0.014,1.21898 0.3522,3.14781 0.7508,4.28636 0.3988,1.13855 0.5348,2.10214 0.3025,2.14136 -0.6715,0.11346 -7.166,-1.68324 -7.8714,-2.17757 -0.3514,-0.24626 -0.5611,-0.75993 -0.4658,-1.14148 z m 25.7806,17.36939 c -1.0556,-1.54116 -1.9539,-2.99203 -1.9962,-3.22417 -0.043,-0.23216 0.9096,-0.43367 2.1153,-0.44787 1.2058,-0.0141 3.1332,-0.3555 4.2832,-0.75849 2.5022,-0.87694 2.5287,-0.78171 1.1383,4.08773 -1.485,5.20072 -2.1837,5.24396 -5.5406,0.3428 z m -12.4055,-12.22525 c -2.6028,-3.46625 -3.61,-7.66938 -2.8638,-11.9509 0.3647,-2.09297 0.7253,-2.86178 2.5942,-5.53089 1.9881,-2.83947 2.3859,-3.21843 4.7333,-4.50825 3.0382,-1.6695 6.4817,-2.23875 9.9168,-1.63929 2.1171,0.36944 2.8775,0.72524 5.5453,2.59484 2.668,1.86967 3.262,2.46304 4.3324,4.3274 1.7368,3.02497 2.3786,6.45721 1.8483,9.88423 -0.4098,2.64911 -0.629,3.15042 -2.6226,5.99761 -1.9935,2.84719 -2.3896,3.22455 -4.7382,4.51504 -4.9371,2.71296 -10.2629,2.51634 -15.0154,-0.55427 -1.634,-1.05569 -3.0834,-2.27407 -3.7303,-3.13552 z m -7.4796,-19.13693 c -3.0005,-5.26271 -2.7868,-5.56783 3.1821,-4.54474 2.442,0.41855 4.4468,0.80089 4.4552,0.84974 0.01,0.0488 -0.678,0.75294 -1.5252,1.56474 -1.0583,1.01402 -1.8814,2.18425 -2.6301,3.73853 -0.5991,1.24457 -1.1257,2.27251 -1.17,2.28445 -0.045,0.0119 -1.0849,-1.73991 -2.3124,-3.89301 z m 30.7507,23.33051 c 1.1604,-0.78285 3.4265,-3.70813 4.1786,-5.39403 0.4536,-1.01669 0.8658,-1.85506 0.9161,-1.86299 0.05,-0.008 1.0957,1.74709 2.3232,3.90012 3.1657,5.5525 2.8493,5.7925 -5.472,4.15117 -1.5978,-0.31515 -2.2571,-0.58426 -1.9459,-0.79427 z m -18.8469,-31.11657 c 0.7783,-3.51967 1.8636,-6.71462 2.405,-7.07996 0.328,-0.22139 0.8841,-0.201 1.2355,0.0452 0.7054,0.49433 4.6121,5.98679 4.735,6.65689 0.043,0.23187 -0.9091,0.4332 -2.1149,0.44735 -1.2058,0.0141 -3.1197,0.3508 -4.2533,0.74803 -1.1335,0.39727 -2.1168,0.68309 -2.1851,0.63525 -0.068,-0.048 0.011,-0.70165 0.1778,-1.45282 z m 24.8764,16.87555 c -0.014,-1.21898 -0.3522,-3.14781 -0.7509,-4.28637 -0.3986,-1.13849 -0.5347,-2.10213 -0.3023,-2.14136 0.6715,-0.11338 7.1658,1.68326 7.8713,2.17759 1.0738,0.7525 0.4204,1.74258 -2.5891,3.92382 -4.0994,2.97099 -4.198,2.97859 -4.229,0.32632 z m -9.731,-17.04277 c 7.2598,-4.38688 7.6392,-4.26944 6.5603,2.03096 -0.4184,2.44303 -0.8015,4.44986 -0.8514,4.45958 -0.05,0.009 -0.7237,-0.63729 -1.4972,-1.4378 -1.2827,-1.32735 -4.4114,-3.30202 -5.7693,-3.64114 -0.3642,-0.091 0.1635,-0.56923 1.5576,-1.4116 z"
       id="path75926" /></g></svg>
