<?xml version="1.0" encoding="UTF-8" standalone="no"?>
<!-- Created with Inkscape (http://www.inkscape.org/) -->

<svg
   width="50.000042mm"
   height="50.000011mm"
   viewBox="0 0 50.000042 50.000011"
   version="1.1"
   id="svg5"
   inkscape:version="1.2.2 (732a01da63, 2022-12-09)"
   sodipodi:docname="cards.svg"
   xml:space="preserve"
   xmlns:inkscape="http://www.inkscape.org/namespaces/inkscape"
   xmlns:sodipodi="http://sodipodi.sourceforge.net/DTD/sodipodi-0.dtd"
   xmlns="http://www.w3.org/2000/svg"
   xmlns:svg="http://www.w3.org/2000/svg"><sodipodi:namedview
     id="namedview7"
     pagecolor="#505050"
     bordercolor="#eeeeee"
     borderopacity="1"
     inkscape:showpageshadow="0"
     inkscape:pageopacity="0"
     inkscape:pagecheckerboard="0"
     inkscape:deskcolor="#505050"
     inkscape:document-units="mm"
     showgrid="false"
     showborder="false"
     inkscape:zoom="0.0625"
     inkscape:cx="26192"
     inkscape:cy="-3232"
     inkscape:window-width="1920"
     inkscape:window-height="1017"
     inkscape:window-x="1912"
     inkscape:window-y="-8"
     inkscape:window-maximized="1"
     inkscape:current-layer="layer1" /><defs
     id="defs2" /><g
     inkscape:label="Réteg 1"
     inkscape:groupmode="layer"
     id="layer1"
     transform="translate(-7732.8333,896.44441)"><path
       style="fill:#144f5d;stroke-width:0.171844"
       d="m 7754.8027,-846.48431 c -5.8403,-0.84736 -10.5833,-3.15095 -14.4438,-7.01502 -3.7952,-3.79884 -5.7657,-7.30506 -7.0626,-12.56709 -0.4266,-1.73087 -0.463,-2.15528 -0.463,-5.40129 0,-3.24766 0.036,-3.67046 0.4645,-5.4131 0.635,-2.58329 1.0165,-3.6403 2.1032,-5.8256 1.2536,-2.52088 2.5497,-4.29804 4.711,-6.45931 2.1612,-2.16127 3.9384,-3.4574 6.4593,-4.71095 2.1853,-1.08667 3.2423,-1.46827 5.8256,-2.10317 1.7427,-0.42828 2.1654,-0.46457 5.4131,-0.46457 3.2477,0 3.6705,0.0363 5.4131,0.46457 2.5324,0.62238 3.6173,1.01081 5.7552,2.06049 2.8201,1.38457 5.7095,3.59992 7.8263,6.00037 2.7259,3.09128 4.7986,7.32156 5.7029,11.63962 0.4429,2.11481 0.4321,7.55557 -0.019,9.70922 -0.6138,2.92821 -1.9275,6.18269 -3.4851,8.63361 -2.3317,3.66896 -5.9908,6.9534 -9.9818,8.95948 -3.4597,1.73905 -6.4689,2.44736 -10.6958,2.51758 -1.654,0.0275 -3.2392,0.0163 -3.5228,-0.0249 z m -2.4303,-14.86017 c 0.2701,-0.38067 0.4634,-0.71363 0.4296,-0.7399 -0.034,-0.0263 -0.5849,-0.28899 -1.2247,-0.58383 -1.0716,-0.49375 -3.0515,-1.85973 -3.316,-2.28771 -0.062,-0.0999 0.2095,0.0215 0.6028,0.26976 0.8971,0.56636 3.8363,1.55596 5.4231,1.82595 1.8285,0.31112 5.7368,0.26675 7.5569,-0.0858 1.8393,-0.35625 3.688,-1.04568 5.3315,-1.98823 l 1.2029,-0.68987 -0.7434,0.67885 c -1.0122,0.92443 -2.4349,1.84912 -3.6545,2.37537 -0.5584,0.24094 -1.0153,0.50726 -1.0153,0.59185 0,0.0846 0.2337,0.44454 0.5193,0.79992 l 0.5193,0.64613 1.0703,-0.12936 c 2.5254,-0.30522 5.2196,-1.53205 6.9379,-3.15927 l 0.9074,-0.85923 -0.1655,-1.5466 c -0.5095,-4.76063 -1.5655,-8.73115 -3.1786,-11.95138 -0.6334,-1.26451 -0.8648,-1.55446 -1.6626,-2.0842 -1.394,-0.92558 -2.1954,-1.29548 -3.8372,-1.77127 -1.8411,-0.53352 -2.254,-0.5458 -2.4046,-0.0715 -0.1462,0.46081 -0.042,0.54034 1.2084,0.91571 1.2173,0.36564 3.395,1.45966 4.1243,2.07188 l 0.5156,0.43281 -0.4619,-0.16391 c -0.254,-0.0901 -0.8636,-0.36747 -1.3545,-0.61627 -2.2334,-1.13174 -4.2118,-1.5186 -7.807,-1.52657 -3.5547,-0.008 -5.3636,0.35552 -8.3774,1.68303 -0.8552,0.37668 -0.8168,0.22056 0.086,-0.3495 1.2593,-0.79526 2.5857,-1.41442 3.5573,-1.66056 1.0322,-0.26154 1.1599,-0.40184 0.8058,-0.88603 -0.2204,-0.30143 -0.3144,-0.30971 -1.2482,-0.10982 -1.5148,0.32429 -3.2725,1.02095 -4.6185,1.83064 -1.1691,0.70325 -1.2271,0.77137 -2.0621,2.42194 -1.6566,3.27443 -2.7903,7.70278 -3.1311,12.23097 -0.091,1.20685 -0.075,1.27542 0.4013,1.77945 0.5793,0.61259 2.0623,1.64986 3.1484,2.20222 1.2576,0.63958 4.6681,1.45455 5.2522,1.25511 0.095,-0.0323 0.3928,-0.37012 0.6629,-0.7508 z m 9.3286,-6.17989 c -2.5634,-0.74606 -2.0688,-5.22436 0.577,-5.22436 0.8713,0 1.524,0.48096 2.0351,1.49996 0.3099,0.61781 0.3767,0.95526 0.2905,1.46614 -0.2769,1.63862 -1.5713,2.64572 -2.9026,2.25826 z m -9.3387,-0.32765 c -0.7402,-0.45134 -1.0824,-1.17614 -1.0824,-2.29291 0,-1.53275 0.8865,-2.51766 2.271,-2.52316 0.7957,-0.003 1.7405,0.76756 2.035,1.66006 0.2435,0.73773 0.1056,1.95386 -0.29,2.55769 -0.6098,0.93052 -1.9429,1.20242 -2.9336,0.59832 z"
       id="path75930" /></g></svg>
