<?xml version="1.0" encoding="UTF-8" standalone="no"?>
<!-- Created with Inkscape (http://www.inkscape.org/) -->

<svg
   width="49.999966mm"
   height="50.000011mm"
   viewBox="0 0 49.999966 50.000011"
   version="1.1"
   id="svg5"
   inkscape:version="1.2.2 (732a01da63, 2022-12-09)"
   sodipodi:docname="cards.svg"
   xml:space="preserve"
   xmlns:inkscape="http://www.inkscape.org/namespaces/inkscape"
   xmlns:sodipodi="http://sodipodi.sourceforge.net/DTD/sodipodi-0.dtd"
   xmlns="http://www.w3.org/2000/svg"
   xmlns:svg="http://www.w3.org/2000/svg"><sodipodi:namedview
     id="namedview7"
     pagecolor="#505050"
     bordercolor="#eeeeee"
     borderopacity="1"
     inkscape:showpageshadow="0"
     inkscape:pageopacity="0"
     inkscape:pagecheckerboard="0"
     inkscape:deskcolor="#505050"
     inkscape:document-units="mm"
     showgrid="false"
     showborder="false"
     inkscape:zoom="0.0625"
     inkscape:cx="26192"
     inkscape:cy="-3232"
     inkscape:window-width="1920"
     inkscape:window-height="1017"
     inkscape:window-x="1912"
     inkscape:window-y="-8"
     inkscape:window-maximized="1"
     inkscape:current-layer="layer1" /><defs
     id="defs2" /><g
     inkscape:label="Réteg 1"
     inkscape:groupmode="layer"
     id="layer1"
     transform="translate(-7794.3023,897.64869)"><path
       style="fill:#144f5d;stroke-width:0.100889"
       d="m 7809.3479,-850.22743 c -4.7504,-2.21418 -8.5896,-5.50086 -11.2612,-9.6405 -0.7117,-1.10253 -1.8831,-3.45855 -2.3629,-4.75191 -3.5175,-9.48172 -0.3656,-20.18393 7.8911,-26.79489 2.0684,-1.65621 3.6566,-2.61422 6.141,-3.70441 3.7123,-1.62893 7.3767,-2.43746 11.4475,-2.52592 1.274,-0.0277 3.6003,0.10823 3.9394,0.23016 0.1164,0.0419 0.3936,0.26117 0.616,0.48731 0.3115,0.31672 0.4129,0.51589 0.4415,0.86669 0.061,0.74434 -0.1703,1.13006 -0.9639,1.60732 -1.7531,1.05441 -2.6422,1.65557 -3.4416,2.32685 -3.4,2.8557 -5.7931,7.10143 -6.4022,11.35838 -0.7997,5.59049 1.287,11.37302 5.5225,15.30344 2.2626,2.09949 4.3293,3.35302 7.1791,4.3544 2.6368,0.92637 4.7373,1.29628 7.2862,1.28268 2.0452,-0.0108 3.7213,-0.23838 5.8771,-0.79771 0.5734,-0.14876 1.2211,-0.26155 1.4396,-0.25064 0.8318,0.0417 1.5587,0.69273 1.5993,1.43258 0.033,0.60899 -0.045,0.75995 -0.9683,1.86028 -3.8336,4.57042 -9.0664,7.7784 -14.9106,9.14098 -4.399,1.02561 -9.0157,1.05777 -13.3907,0.0932 -1.4254,-0.31424 -4.5175,-1.33698 -5.6789,-1.87831 z"
       id="path75523" /></g></svg>
