<?xml version="1.0" encoding="UTF-8" standalone="no"?>
<!-- Created with Inkscape (http://www.inkscape.org/) -->

<svg
   width="63.728401mm"
   height="50.893753mm"
   viewBox="0 0 63.728401 50.893753"
   version="1.1"
   id="svg5"
   inkscape:version="1.2.2 (732a01da63, 2022-12-09)"
   sodipodi:docname="cards.svg"
   xml:space="preserve"
   xmlns:inkscape="http://www.inkscape.org/namespaces/inkscape"
   xmlns:sodipodi="http://sodipodi.sourceforge.net/DTD/sodipodi-0.dtd"
   xmlns="http://www.w3.org/2000/svg"
   xmlns:svg="http://www.w3.org/2000/svg"><sodipodi:namedview
     id="namedview7"
     pagecolor="#505050"
     bordercolor="#eeeeee"
     borderopacity="1"
     inkscape:showpageshadow="0"
     inkscape:pageopacity="0"
     inkscape:pagecheckerboard="0"
     inkscape:deskcolor="#505050"
     inkscape:document-units="mm"
     showgrid="false"
     showborder="false"
     inkscape:zoom="0.0625"
     inkscape:cx="26192"
     inkscape:cy="-3232"
     inkscape:window-width="1920"
     inkscape:window-height="1017"
     inkscape:window-x="1912"
     inkscape:window-y="-8"
     inkscape:window-maximized="1"
     inkscape:current-layer="layer1" /><defs
     id="defs2" /><g
     inkscape:label="Réteg 1"
     inkscape:groupmode="layer"
     id="layer1"
     transform="translate(-8029.0383,900.63723)"><path
       style="fill:#144f5d;stroke-width:0.146195"
       d="m 8041.6032,-851.93724 c -4.7537,-2.04845 -8.9473,-5.22476 -11.8514,-8.97621 l -0.7135,-0.92163 1.1554,0.45636 c 3.6152,1.42783 8.1903,1.79688 11.9328,0.96255 1.5888,-0.35409 4.0026,-1.15408 4.0658,-1.34737 0.025,-0.0759 -0.205,-0.22093 -0.5108,-0.32221 -0.6596,-0.21876 -1.8679,-0.97963 -2.7347,-1.72275 -1.5061,-1.29131 -2.8643,-3.58304 -3.421,-5.77243 -0.2557,-1.00568 -0.5493,-3.6336 -0.4137,-3.70363 0.031,-0.0162 0.4192,0.15795 0.8626,0.38663 0.8379,0.43216 3.2999,1.00069 3.7727,0.87121 0.1969,-0.0539 0.1935,-0.083 -0.019,-0.16093 -0.1426,-0.0519 -0.6916,-0.47512 -1.2206,-0.93977 -2.6091,-2.29181 -4.074,-5.96273 -3.8899,-9.74808 0.051,-1.05562 0.4947,-3.53615 0.648,-3.62569 0.043,-0.0243 0.4937,0.32557 1.0036,0.77787 0.8691,0.77085 2.3843,1.76109 3.0051,1.964 0.2102,0.0687 0.1176,-0.23418 -0.3928,-1.28835 -1.103,-2.27691 -1.5368,-4.65282 -1.3115,-7.18377 0.1492,-1.67724 1.0892,-4.46158 1.9849,-5.8791 0.7479,-1.18414 1.8555,-2.57581 2.0098,-2.52536 0.054,0.0177 0.1744,0.29954 0.2682,0.62665 0.3173,1.10497 1.7929,4.34139 2.6783,5.87391 3.288,5.6915 8.4729,10.421 13.8778,12.6587 l 1.1217,0.4644 0.1095,-0.68232 c 0.2211,-1.38263 1.1937,-3.99567 1.9165,-5.15078 2.7102,-4.32876 7.5768,-6.67275 11.9893,-5.77445 3.2641,0.66454 5.8783,2.72382 7.3365,5.77945 l 0.4067,0.85186 1.0373,0.0523 c 1.5797,0.0797 3.3878,-0.064 5.0759,-0.40327 1.7301,-0.34767 1.7266,-0.35594 0.4481,1.06037 -1.3512,1.4966 -3.059,2.7049 -4.6033,3.25663 -0.5465,0.1952 -0.8541,0.37594 -0.7476,0.43927 0.3536,0.21035 3.06,0.36473 4.6609,0.26595 l 1.6259,-0.10032 -0.4375,0.36944 c -1.639,1.38373 -4.3984,3.07451 -6.0354,3.69815 l -0.6956,0.26503 -0.9294,2.58264 c -4.4926,12.49179 -14.6566,21.89994 -26.1596,24.21388 -5.5493,1.11636 -11.9344,0.49358 -16.9063,-1.64895 z"
       id="path75932" /></g></svg>
